<svg version="1.1" viewBox="0.0 0.0 960.0 336.0" fill="none" stroke="none" stroke-linecap="square" stroke-miterlimit="10" xmlns:xlink="http://www.w3.org/1999/xlink" xmlns="http://www.w3.org/2000/svg"><clipPath id="g2e42cb97efe_2_6.0"><path d="m0 0l960.0 0l0 336.0l-960.0 0l0 -336.0z" clip-rule="nonzero"/></clipPath><g clip-path="url(#g2e42cb97efe_2_6.0)"><path fill="#ffffff" d="m0 0l960.0 0l0 336.0l-960.0 0z" fill-rule="evenodd"/><path fill="#000000" d="m42.61354 33.13965c4.656109 0 7.8276634 0.5209503 9.51466 1.5628548c1.6869965 1.0182228 2.766674 2.6284409 3.2390366 4.8306465c0.4723587 2.2022057 0.70853806 7.2104454 0.70853806 15.024727l0 67.0252c0 11.508308 -0.70853806 18.564827 -2.125618 21.169594c-1.4170761 2.58107 -5.1959496 3.8716278 -11.3366165 3.8716278l0 -113.48465zm-42.61354 -29.516665l0 172.51797l53.74772 0c10.189461 0 17.81469 -0.5801697 22.875679 -1.7404633c5.0609894 -1.1839905 9.312218 -3.24411 12.753693 -6.180374c3.441475 -2.959961 5.8482437 -7.0447083 7.2203445 -12.254211c1.394577 -5.2332153 2.0918808 -15.593048 2.0918808 -31.079521l0 -60.418587c0 -16.338947 -0.4723587 -27.29078 -1.4170761 -32.85549c-0.94472504 -5.588394 -3.3065186 -10.655834 -7.085388 -15.202324c-3.7788773 -4.5464897 -9.300987 -7.8142796 -16.566307 -9.803369c-7.2428513 -1.9890895 -21.154942 -2.983634 -41.736305 -2.983634z" fill-rule="evenodd"/><path fill="#000000" d="m159.11754 42.197105c2.1593628 28.699715 4.3187103 52.81742 6.478073 72.35312l-14.575653 0c1.0796814 -15.273361 3.7788696 -39.391068 8.09758 -72.35312zm-32.592773 -38.57412l-21.661041 172.51797l44.131836 0l2.530487 -31.008484l15.284195 0l2.1256256 31.008484l43.625732 0l-24.393982 -172.51797z" fill-rule="evenodd"/><path fill="#000000" d="m219.84943 3.622984l0 172.51797l42.613525 0l0 -172.51797z" fill-rule="evenodd"/><path fill="#000000" d="m279.56912 3.622984l0 172.51797l68.52579 0l0 -34.524918l-25.912262 0l0 -137.99306zm55.6709 0l29.96106 110.074776l0 62.4432l39.475708 0l0 -62.4432l31.074493 -110.074776l-39.17206 0c-5.5333557 26.852705 -9.4809265 49.478592 -11.842743 67.87767c-0.74227905 -11.650383 -4.1837463 -34.27627 -10.324402 -67.87767z" fill-rule="evenodd"/><path fill="#000000" d="m522.193 33.13965c4.3861694 0.07103729 7.3328247 0.39071274 8.839844 0.9590225c1.529541 0.5683136 2.7667236 1.9417305 3.7114258 4.1202583c0.94470215 2.15485 1.4170532 5.9317474 1.4170532 11.330704c0 10.229603 -0.57354736 16.433666 -1.7207031 18.612194c-1.1471558 2.1548462 -3.812622 3.2322693 -7.996399 3.2322693c-1.012207 0 -2.4292603 0.03551483 -4.2512207 0.10655975l0 -38.361008zm0 65.21371c6.3431396 0.2131195 10.256958 1.1011047 11.741516 2.6639633c1.4845581 1.562851 2.2268066 6.038307 2.2268066 13.426353l0 16.09031c0 6.9618073 -0.83221436 11.330704 -2.4967651 13.106674c-1.6419678 1.7759705 -5.4658203 2.770523 -11.471558 2.9836426l0 -48.270943zm-42.613525 -94.73037l0 172.51797l49.294006 0c17.139893 0 28.476562 -1.0300751 34.009888 -3.0901947c5.533325 -2.060135 9.559631 -5.89624 12.078918 -11.508301c2.541687 -5.612076 3.812561 -14.243301 3.812561 -25.893692l0 -15.983742c0 -11.224152 -1.7544556 -19.547539 -5.2634277 -24.970177c-3.5089111 -5.446312 -10.189453 -9.341614 -20.041504 -11.685898c8.839844 -2.1311722 14.755615 -5.1858444 17.747192 -9.164017c3.0140991 -3.97818 4.521179 -11.011032 4.521179 -21.098557c0 -14.918171 -2.1256104 -25.727922 -6.376831 -32.42926c-4.2512817 -6.7250175 -9.84082 -11.188626 -16.768799 -13.390833c-6.9053955 -2.2022061 -17.072388 -3.303309 -30.500854 -3.303309z" fill-rule="evenodd"/><path fill="#000000" d="m638.59576 42.197105c2.1593628 28.699715 4.3187256 52.81742 6.4780884 72.35312l-14.575684 0c1.0797119 -15.273361 3.7788696 -39.391068 8.097595 -72.35312zm-32.592773 -38.57412l-21.66101 172.51797l44.131836 0l2.5304565 -31.008484l15.28418 0l2.1256714 31.008484l43.625732 0l-24.393982 -172.51797z" fill-rule="evenodd"/><path fill="#000000" d="m742.0424 0c-10.122009 0 -18.7594 1.728614 -25.912292 5.1858397c-7.152832 3.433545 -12.337524 8.204993 -15.554077 14.314338c-3.1940308 6.1093464 -4.7910767 15.770636 -4.7910767 28.983873c0 9.164017 1.1246948 16.694141 3.3739624 22.590366c2.2718506 5.8962326 5.128479 10.513763 8.569946 13.852585c3.4414673 3.338829 10.459412 8.7022705 21.053772 16.090317c10.594299 7.3170013 17.241089 12.538361 19.940247 15.664078c2.6317139 3.1257095 3.9475708 9.767845 3.9475708 19.926407c0 4.6175385 -0.6972656 8.098434 -2.091858 10.4427185c-1.3720703 2.344284 -3.4752197 3.5164337 -6.309387 3.5164337c-2.8341064 0 -4.8135376 -0.9235077 -5.9381714 -2.770523c-1.1021729 -1.8470154 -1.6532593 -6.0027924 -1.6532593 -12.467331l0 -20.99199l-39.576965 0l0 11.295181c0 12.929077 1.248352 22.91005 3.7451172 29.942902c2.4967651 7.032852 7.7714233 12.822525 15.824036 17.369003c8.075073 4.5464935 17.814697 6.8197327 29.218811 6.8197327c10.391907 0 19.501648 -1.9654083 27.329346 -5.896225c7.8276367 -3.9544983 13.102295 -8.844345 15.824036 -14.669525c2.7441406 -5.8251953 4.116272 -14.88266 4.116272 -27.172379c0 -16.907265 -2.4630127 -29.161476 -7.389099 -36.762634c-4.9260254 -7.601166 -16.869934 -17.333496 -35.831787 -29.196991c-6.613037 -4.1202545 -10.628052 -7.6366806 -12.045166 -10.549278c-1.4845581 -2.9125938 -2.2268066 -7.245968 -2.2268066 -13.000118c0 -4.4754486 0.6522827 -7.8142776 1.9569092 -10.016483c1.3270874 -2.2022057 3.272766 -3.3033085 5.836975 -3.3033085c2.3618164 0 4.048828 0.816946 5.061035 2.450842c1.012207 1.6338959 1.5182495 5.434475 1.5182495 11.401741l0 12.787003l39.576965 0l0 -6.8197327c0 -13.710506 -1.270874 -23.419159 -3.812622 -29.12595c-2.519226 -5.7304726 -7.6814575 -10.478238 -15.486633 -14.2432995c-7.782654 -3.7650619 -17.207336 -5.6475925 -28.274048 -5.6475925z" fill-rule="evenodd"/><path fill="#000000" d="m806.5194 3.622984l0 172.51797l42.613586 0l0 -172.51797z" fill-rule="evenodd"/><path fill="#000000" d="m908.95386 0c-10.121948 0 -18.7594 1.728614 -25.912231 5.1858397c-7.152893 3.433545 -12.337585 8.204993 -15.554138 14.314338c-3.1940308 6.1093464 -4.7910767 15.770636 -4.7910767 28.983873c0 9.164017 1.1246948 16.694141 3.3740234 22.590366c2.2717896 5.8962326 5.128479 10.513763 8.569946 13.852585c3.4414673 3.338829 10.459351 8.7022705 21.05371 16.090317c10.59436 7.3170013 17.241089 12.538361 19.940308 15.664078c2.6317139 3.1257095 3.9475708 9.767845 3.9475708 19.926407c0 4.6175385 -0.69732666 8.098434 -2.091858 10.4427185c-1.3721313 2.344284 -3.4752197 3.5164337 -6.309387 3.5164337c-2.8341675 0 -4.8135986 -0.9235077 -5.9382324 -2.770523c-1.1021729 -1.8470154 -1.6532593 -6.0027924 -1.6532593 -12.467331l0 -20.99199l-39.576965 0l0 11.295181c0 12.929077 1.2484131 22.91005 3.7451782 29.942902c2.496704 7.032852 7.7714233 12.822525 15.824036 17.369003c8.075073 4.5464935 17.814636 6.8197327 29.21875 6.8197327c10.391907 0 19.501709 -1.9654083 27.329346 -5.896225c7.8276978 -3.9544983 13.102356 -8.844345 15.824036 -14.669525c2.7442017 -5.8251953 4.116272 -14.88266 4.116272 -27.172379c0 -16.907265 -2.4630127 -29.161476 -7.389038 -36.762634c-4.9260254 -7.601166 -16.869995 -17.333496 -35.831787 -29.196991c-6.613037 -4.1202545 -10.628113 -7.6366806 -12.045166 -10.549278c-1.4845581 -2.9125938 -2.2268677 -7.245968 -2.2268677 -13.000118c0 -4.4754486 0.6522827 -7.8142776 1.9569092 -10.016483c1.3270874 -2.2022057 3.272766 -3.3033085 5.837036 -3.3033085c2.3618164 0 4.048767 0.816946 5.060974 2.450842c1.012207 1.6338959 1.5183105 5.434475 1.5183105 11.401741l0 12.787003l39.576965 0l0 -6.8197327c0 -13.710506 -1.270935 -23.419159 -3.812622 -29.12595c-2.519287 -5.7304726 -7.6814575 -10.478238 -15.486633 -14.2432995c-7.782715 -3.7650619 -17.207397 -5.6475925 -28.274109 -5.6475925z" fill-rule="evenodd"/><path stroke="#000000" stroke-width="1.0" stroke-linejoin="round" stroke-linecap="butt" d="m42.61354 33.13965c4.656109 0 7.8276634 0.5209503 9.51466 1.5628548c1.6869965 1.0182228 2.766674 2.6284409 3.2390366 4.8306465c0.4723587 2.2022057 0.70853806 7.2104454 0.70853806 15.024727l0 67.0252c0 11.508308 -0.70853806 18.564827 -2.125618 21.169594c-1.4170761 2.58107 -5.1959496 3.8716278 -11.3366165 3.8716278l0 -113.48465zm-42.61354 -29.516665l0 172.51797l53.74772 0c10.189461 0 17.81469 -0.5801697 22.875679 -1.7404633c5.0609894 -1.1839905 9.312218 -3.24411 12.753693 -6.180374c3.441475 -2.959961 5.8482437 -7.0447083 7.2203445 -12.254211c1.394577 -5.2332153 2.0918808 -15.593048 2.0918808 -31.079521l0 -60.418587c0 -16.338947 -0.4723587 -27.29078 -1.4170761 -32.85549c-0.94472504 -5.588394 -3.3065186 -10.655834 -7.085388 -15.202324c-3.7788773 -4.5464897 -9.300987 -7.8142796 -16.566307 -9.803369c-7.2428513 -1.9890895 -21.154942 -2.983634 -41.736305 -2.983634z" fill-rule="evenodd"/><path stroke="#000000" stroke-width="1.0" stroke-linejoin="round" stroke-linecap="butt" d="m159.11754 42.197105c2.1593628 28.699715 4.3187103 52.81742 6.478073 72.35312l-14.575653 0c1.0796814 -15.273361 3.7788696 -39.391068 8.09758 -72.35312zm-32.592773 -38.57412l-21.661041 172.51797l44.131836 0l2.530487 -31.008484l15.284195 0l2.1256256 31.008484l43.625732 0l-24.393982 -172.51797z" fill-rule="evenodd"/><path stroke="#000000" stroke-width="1.0" stroke-linejoin="round" stroke-linecap="butt" d="m219.84943 3.622984l0 172.51797l42.613525 0l0 -172.51797z" fill-rule="evenodd"/><path stroke="#000000" stroke-width="1.0" stroke-linejoin="round" stroke-linecap="butt" d="m279.56912 3.622984l0 172.51797l68.52579 0l0 -34.524918l-25.912262 0l0 -137.99306zm55.6709 0l29.96106 110.074776l0 62.4432l39.475708 0l0 -62.4432l31.074493 -110.074776l-39.17206 0c-5.5333557 26.852705 -9.4809265 49.478592 -11.842743 67.87767c-0.74227905 -11.650383 -4.1837463 -34.27627 -10.324402 -67.87767z" fill-rule="evenodd"/><path stroke="#000000" stroke-width="1.0" stroke-linejoin="round" stroke-linecap="butt" d="m522.193 33.13965c4.3861694 0.07103729 7.3328247 0.39071274 8.839844 0.9590225c1.529541 0.5683136 2.7667236 1.9417305 3.7114258 4.1202583c0.94470215 2.15485 1.4170532 5.9317474 1.4170532 11.330704c0 10.229603 -0.57354736 16.433666 -1.7207031 18.612194c-1.1471558 2.1548462 -3.812622 3.2322693 -7.996399 3.2322693c-1.012207 0 -2.4292603 0.03551483 -4.2512207 0.10655975l0 -38.361008zm0 65.21371c6.3431396 0.2131195 10.256958 1.1011047 11.741516 2.6639633c1.4845581 1.562851 2.2268066 6.038307 2.2268066 13.426353l0 16.09031c0 6.9618073 -0.83221436 11.330704 -2.4967651 13.106674c-1.6419678 1.7759705 -5.4658203 2.770523 -11.471558 2.9836426l0 -48.270943zm-42.613525 -94.73037l0 172.51797l49.294006 0c17.139893 0 28.476562 -1.0300751 34.009888 -3.0901947c5.533325 -2.060135 9.559631 -5.89624 12.078918 -11.508301c2.541687 -5.612076 3.812561 -14.243301 3.812561 -25.893692l0 -15.983742c0 -11.224152 -1.7544556 -19.547539 -5.2634277 -24.970177c-3.5089111 -5.446312 -10.189453 -9.341614 -20.041504 -11.685898c8.839844 -2.1311722 14.755615 -5.1858444 17.747192 -9.164017c3.0140991 -3.97818 4.521179 -11.011032 4.521179 -21.098557c0 -14.918171 -2.1256104 -25.727922 -6.376831 -32.42926c-4.2512817 -6.7250175 -9.84082 -11.188626 -16.768799 -13.390833c-6.9053955 -2.2022061 -17.072388 -3.303309 -30.500854 -3.303309z" fill-rule="evenodd"/><path stroke="#000000" stroke-width="1.0" stroke-linejoin="round" stroke-linecap="butt" d="m638.59576 42.197105c2.1593628 28.699715 4.3187256 52.81742 6.4780884 72.35312l-14.575684 0c1.0797119 -15.273361 3.7788696 -39.391068 8.097595 -72.35312zm-32.592773 -38.57412l-21.66101 172.51797l44.131836 0l2.5304565 -31.008484l15.28418 0l2.1256714 31.008484l43.625732 0l-24.393982 -172.51797z" fill-rule="evenodd"/><path stroke="#000000" stroke-width="1.0" stroke-linejoin="round" stroke-linecap="butt" d="m742.0424 0c-10.122009 0 -18.7594 1.728614 -25.912292 5.1858397c-7.152832 3.433545 -12.337524 8.204993 -15.554077 14.314338c-3.1940308 6.1093464 -4.7910767 15.770636 -4.7910767 28.983873c0 9.164017 1.1246948 16.694141 3.3739624 22.590366c2.2718506 5.8962326 5.128479 10.513763 8.569946 13.852585c3.4414673 3.338829 10.459412 8.7022705 21.053772 16.090317c10.594299 7.3170013 17.241089 12.538361 19.940247 15.664078c2.6317139 3.1257095 3.9475708 9.767845 3.9475708 19.926407c0 4.6175385 -0.6972656 8.098434 -2.091858 10.4427185c-1.3720703 2.344284 -3.4752197 3.5164337 -6.309387 3.5164337c-2.8341064 0 -4.8135376 -0.9235077 -5.9381714 -2.770523c-1.1021729 -1.8470154 -1.6532593 -6.0027924 -1.6532593 -12.467331l0 -20.99199l-39.576965 0l0 11.295181c0 12.929077 1.248352 22.91005 3.7451172 29.942902c2.4967651 7.032852 7.7714233 12.822525 15.824036 17.369003c8.075073 4.5464935 17.814697 6.8197327 29.218811 6.8197327c10.391907 0 19.501648 -1.9654083 27.329346 -5.896225c7.8276367 -3.9544983 13.102295 -8.844345 15.824036 -14.669525c2.7441406 -5.8251953 4.116272 -14.88266 4.116272 -27.172379c0 -16.907265 -2.4630127 -29.161476 -7.389099 -36.762634c-4.9260254 -7.601166 -16.869934 -17.333496 -35.831787 -29.196991c-6.613037 -4.1202545 -10.628052 -7.6366806 -12.045166 -10.549278c-1.4845581 -2.9125938 -2.2268066 -7.245968 -2.2268066 -13.000118c0 -4.4754486 0.6522827 -7.8142776 1.9569092 -10.016483c1.3270874 -2.2022057 3.272766 -3.3033085 5.836975 -3.3033085c2.3618164 0 4.048828 0.816946 5.061035 2.450842c1.012207 1.6338959 1.5182495 5.434475 1.5182495 11.401741l0 12.787003l39.576965 0l0 -6.8197327c0 -13.710506 -1.270874 -23.419159 -3.812622 -29.12595c-2.519226 -5.7304726 -7.6814575 -10.478238 -15.486633 -14.2432995c-7.782654 -3.7650619 -17.207336 -5.6475925 -28.274048 -5.6475925z" fill-rule="evenodd"/><path stroke="#000000" stroke-width="1.0" stroke-linejoin="round" stroke-linecap="butt" d="m806.5194 3.622984l0 172.51797l42.613586 0l0 -172.51797z" fill-rule="evenodd"/><path stroke="#000000" stroke-width="1.0" stroke-linejoin="round" stroke-linecap="butt" d="m908.95386 0c-10.121948 0 -18.7594 1.728614 -25.912231 5.1858397c-7.152893 3.433545 -12.337585 8.204993 -15.554138 14.314338c-3.1940308 6.1093464 -4.7910767 15.770636 -4.7910767 28.983873c0 9.164017 1.1246948 16.694141 3.3740234 22.590366c2.2717896 5.8962326 5.128479 10.513763 8.569946 13.852585c3.4414673 3.338829 10.459351 8.7022705 21.05371 16.090317c10.59436 7.3170013 17.241089 12.538361 19.940308 15.664078c2.6317139 3.1257095 3.9475708 9.767845 3.9475708 19.926407c0 4.6175385 -0.69732666 8.098434 -2.091858 10.4427185c-1.3721313 2.344284 -3.4752197 3.5164337 -6.309387 3.5164337c-2.8341675 0 -4.8135986 -0.9235077 -5.9382324 -2.770523c-1.1021729 -1.8470154 -1.6532593 -6.0027924 -1.6532593 -12.467331l0 -20.99199l-39.576965 0l0 11.295181c0 12.929077 1.2484131 22.91005 3.7451782 29.942902c2.496704 7.032852 7.7714233 12.822525 15.824036 17.369003c8.075073 4.5464935 17.814636 6.8197327 29.21875 6.8197327c10.391907 0 19.501709 -1.9654083 27.329346 -5.896225c7.8276978 -3.9544983 13.102356 -8.844345 15.824036 -14.669525c2.7442017 -5.8251953 4.116272 -14.88266 4.116272 -27.172379c0 -16.907265 -2.4630127 -29.161476 -7.389038 -36.762634c-4.9260254 -7.601166 -16.869995 -17.333496 -35.831787 -29.196991c-6.613037 -4.1202545 -10.628113 -7.6366806 -12.045166 -10.549278c-1.4845581 -2.9125938 -2.2268677 -7.245968 -2.2268677 -13.000118c0 -4.4754486 0.6522827 -7.8142776 1.9569092 -10.016483c1.3270874 -2.2022057 3.272766 -3.3033085 5.837036 -3.3033085c2.3618164 0 4.048767 0.816946 5.060974 2.450842c1.012207 1.6338959 1.5183105 5.434475 1.5183105 11.401741l0 12.787003l39.576965 0l0 -6.8197327c0 -13.710506 -1.270935 -23.419159 -3.812622 -29.12595c-2.519287 -5.7304726 -7.6814575 -10.478238 -15.486633 -14.2432995c-7.782715 -3.7650619 -17.207397 -5.6475925 -28.274109 -5.6475925z" fill-rule="evenodd"/><path fill="#000000" d="m0 210.06708l0 123.30151l52.774117 0l0 -24.675537l-22.338633 0l0 -27.11261l19.01314 0l0 -23.457l-19.01314 0l0 -23.380829l20.31442 0l0 -24.675537z" fill-rule="evenodd"/><path fill="#000000" d="m61.521606 210.06708l0 123.30151l25.447243 0l0 -56.05307l15.832237 56.05307l26.676224 0l0 -123.30151l-25.447235 0l0 55.51996l-17.061226 -55.51996z" fill-rule="evenodd"/><path fill="#000000" d="m175.16669 207.47768c-9.0607605 0 -16.450745 2.2255402 -22.169952 6.676605c-5.7031403 4.4341583 -9.15715 9.316788 -10.36203 14.647934c-1.204895 5.331131 -1.8073425 13.886337 -1.8073425 25.665604l0 36.632492c0 8.479065 0.28918457 14.84256 0.8675232 19.090546c0.5783539 4.2310486 2.0242157 8.27597 4.3376007 12.134674c2.313385 3.8587341 5.695099 7.0997314 10.145157 9.722992c4.46611 2.6063232 9.25354 3.9094849 14.362274 3.9094849c4.289398 0 8.008484 -0.9477539 11.157272 -2.8432617c3.1648254 -1.9124451 5.7834625 -4.772644 7.8558655 -8.580597l2.8194427 8.834442l19.15773 0l0 -66.18222l-35.64061 0l0 18.735138l6.144928 0l0 14.622528c0 5.737335 -0.4016266 9.596039 -1.2048798 11.576172c-0.7872009 1.9801636 -2.2892914 2.9702148 -4.5062866 2.9702148c-2.0242157 0 -3.3736877 -0.87161255 -4.048416 -2.6147766c-0.67474365 -1.7601318 -1.0121155 -5.407318 -1.0121155 -10.941528l0 -59.1756c0 -6.295807 0.33737183 -10.205307 1.0121155 -11.728485c0.6747284 -1.5231934 1.9519196 -2.2847748 3.831543 -2.2847748c2.1687927 0 3.5423737 0.8885193 4.1207123 2.6655579c0.5783539 1.7770538 0.8675232 6.194275 0.8675232 13.251678l0 11.195389l30.435486 0l0 -5.331131c0 -10.103775 -0.8916168 -17.804306 -2.6748505 -23.101593c-1.7832489 -5.314209 -5.614792 -9.900681 -11.494644 -13.759399c-5.8798523 -3.8587189 -13.277863 -5.788086 -22.194046 -5.788086z" fill-rule="evenodd"/><path fill="#000000" d="m223.31403 210.06708l0 123.30151l48.942566 0l0 -24.675537l-18.50708 0l0 -98.62598z" fill-rule="evenodd"/><path fill="#000000" d="m279.63052 210.06708l0 123.30151l30.435486 0l0 -123.30151z" fill-rule="evenodd"/><path fill="#000000" d="m352.79135 207.47768c-7.2293396 0 -13.398376 1.2354736 -18.50708 3.7064056c-5.108734 2.45401 -8.811768 5.8642426 -11.10907 10.230698c-2.28125 4.366455 -3.4219055 11.271545 -3.4219055 20.715271c0 6.5496674 0.8032837 11.93158 2.40979 16.145706c1.6225891 4.214142 3.6628723 7.514374 6.120819 9.900696c2.4579773 2.386322 7.4703064 6.219635 15.037018 11.5c7.5667114 5.2296143 12.313965 8.961395 14.241791 11.195404c1.8796082 2.2339783 2.8194275 6.9812317 2.8194275 14.24173c0 3.300232 -0.49801636 5.788086 -1.4940491 7.4635925c-0.97998047 1.6755066 -2.4820862 2.5132446 -4.5062866 2.5132446c-2.024231 0 -3.4379578 -0.6600342 -4.241211 -1.980133c-0.7872009 -1.3200989 -1.1807861 -4.290283 -1.1807861 -8.910614l0 -15.003326l-28.266693 0l0 8.072845c0 9.240631 0.8916321 16.374207 2.6748657 21.400696c1.7832336 5.02652 5.5505066 9.16449 11.301849 12.41394c5.767395 3.2494507 12.723633 4.874176 20.868652 4.874176c7.422119 0 13.928528 -1.4047241 19.519196 -4.214142c5.5906982 -2.826355 9.357971 -6.3211975 11.301849 -10.484558c1.9599609 -4.1633606 2.9399414 -10.636871 2.9399414 -19.420563c0 -12.083893 -1.7591248 -20.842194 -5.277405 -26.274872c-3.51828 -5.432678 -12.048889 -12.38855 -25.591827 -20.867584c-4.723175 -2.944809 -7.5908203 -5.458069 -8.602905 -7.539749c-1.0603027 -2.0816803 -1.5904541 -5.1788177 -1.5904541 -9.291397c0 -3.1986847 0.46588135 -5.5850067 1.3976746 -7.158951c0.94784546 -1.5739594 2.3374634 -2.3609314 4.168915 -2.3609314c1.6868286 0 2.8917236 0.58387756 3.6146545 1.751648c0.7229309 1.1677856 1.0844116 3.8841248 1.0844116 8.149033l0 9.139084l28.266663 0l0 -4.874176c0 -9.799133 -0.9076843 -16.738083 -2.723053 -20.816818c-1.7992859 -4.0956726 -5.486267 -7.488968 -11.060852 -10.179932c-5.558563 -2.6909485 -12.289886 -4.0364227 -20.19394 -4.0364227z" fill-rule="evenodd"/><path fill="#000000" d="m398.8422 210.06708l0 123.30151l30.435486 0l0 -51.788147l9.108948 0l0 51.788147l30.435486 0l0 -123.30151l-30.435486 0l0 44.0961l-9.108948 0l0 -44.0961z" fill-rule="evenodd"/><path fill="#000000" d="m541.76605 207.47768c-6.602783 0 -12.4505005 1.1846924 -17.543152 3.5540924c-5.076599 2.3524628 -9.052734 5.5849915 -11.928406 9.697586c-2.8596191 4.1125793 -4.578583 8.394409 -5.1569214 12.8454895c-0.57836914 4.4341583 -0.8675232 11.093842 -0.8675232 19.979065l0 36.02324c0 12.083893 0.93981934 21.138367 2.8194275 27.163391c1.8796387 6.008087 5.7111816 10.713043 11.494629 14.114807c5.7835083 3.401764 13.133301 5.102661 22.0495 5.102661c8.578796 0 15.792053 -2.0055237 21.63977 -6.016571c5.8637695 -4.0110474 9.647156 -8.682129 11.350037 -14.013275c1.7189941 -5.3311157 2.5784912 -14.368652 2.5784912 -27.11261l0 -4.7980347l-30.435486 0l0 15.460297c0 6.752777 -0.3534546 11.04306 -1.0603027 12.87088c-0.6907959 1.8278198 -2.1688232 2.7417297 -4.434021 2.7417297c-2.3615723 0 -3.8796997 -0.9139099 -4.5544434 -2.7417297c-0.67474365 -1.8278198 -1.012146 -5.7373047 -1.012146 -11.728485l0 -57.27162c0 -6.245041 0.33740234 -10.306854 1.012146 -12.18544c0.67474365 -1.8786011 2.2651978 -2.8178864 4.7713623 -2.8178864c2.21698 0 3.6467896 0.7785034 4.2893677 2.3355408c0.6586914 1.5401001 0.9880371 5.432678 0.9880371 11.677719l0 21.476868l30.435486 0l0 -11.7285c0 -11.525406 -0.91571045 -20.012909 -2.7471924 -25.462524c-1.8314209 -5.466522 -5.662964 -10.027603 -11.494629 -13.683243c-5.831665 -3.6556244 -13.229675 -5.483444 -22.19403 -5.483444z" fill-rule="evenodd"/><path fill="#000000" d="m623.6021 228.34526c1.8795776 0 3.1166382 0.80389404 3.7110596 2.4116974c0.61047363 1.5908813 0.91571045 5.2549744 0.91571045 10.992294l0 56.66234c0 7.260498 -0.28918457 11.855438 -0.8675537 13.78479c-0.5783081 1.9293518 -1.9036865 2.894043 -3.9761353 2.894043c-2.02417 0 -3.3174438 -0.83773804 -3.8796997 -2.5132446c-0.54626465 -1.6755066 -0.81933594 -6.0927124 -0.81933594 -13.251678l0 -57.57625c0 -6.346588 0.41766357 -10.16301 1.2530518 -11.449249c0.85150146 -1.3031616 2.0724487 -1.9547424 3.6629028 -1.9547424zm-0.14459229 -20.867584c-6.602783 0 -12.3862915 1.1423798 -17.350403 3.4271545c-4.9641724 2.2847748 -8.908142 5.559616 -11.832031 9.824524c-2.9077759 4.264908 -4.6428223 8.978302 -5.205078 14.140198c-0.54626465 5.1449738 -0.81933594 13.911713 -0.81933594 26.300247l0 21.09607c0 12.693176 0.28918457 21.5784 0.8674927 26.65567c0.57836914 5.0772705 2.3856812 9.773743 5.421997 14.0894165c3.036316 4.3157043 7.0446167 7.556671 12.02478 9.722992c4.996277 2.1493835 10.627136 3.22406 16.892578 3.22406c6.602783 0 12.38623 -1.142395 17.350403 -3.4271545c4.9641113 -2.2847595 8.900085 -5.559601 11.807861 -9.824524c2.9238892 -4.2648926 4.6589355 -8.969849 5.205139 -14.114807c0.56225586 -5.1618958 0.8434448 -13.937103 0.8434448 -26.325653l0 -21.09607c0 -12.693161 -0.28918457 -21.578384 -0.8675537 -26.655655c-0.57836914 -5.0772705 -2.3856812 -9.773758 -5.421997 -14.089432c-3.036316 -4.315674 -7.0526123 -7.5482025 -12.048889 -9.697586c-4.9801636 -2.1663055 -10.603027 -3.2494507 -16.868408 -3.2494507z" fill-rule="evenodd"/><path fill="#000000" d="m669.5806 210.06708l0 72.96039c0 13.911713 0.2409668 23.042328 0.7229614 27.391876c0.4819336 4.332611 2.0482788 8.453644 4.6990356 12.363159c2.6507568 3.9094849 6.651001 7.082794 12.000671 9.519867c5.3497314 2.4371033 11.518738 3.6556396 18.50708 3.6556396c6.3136597 0 11.79187 -1.0239258 16.434692 -3.0717468c4.6589355 -2.0647583 8.410156 -5.085724 11.253662 -9.062927c2.843567 -3.99411 4.5545044 -7.878235 5.1328125 -11.652344c0.57836914 -3.7910156 0.8675537 -10.3576355 0.8675537 -19.699799l0 -82.40411l-30.435486 0l0 90.85776c0 6.1434937 -0.28112793 10.044525 -0.8434448 11.703125c-0.5462036 1.6416321 -1.7832031 2.4624634 -3.7110596 2.4624634c-1.6868286 0 -2.8114014 -0.7446594 -3.3736572 -2.2340088c-0.54626465 -1.5062561 -0.81933594 -4.9503174 -0.81933594 -10.332245l0 -92.45709z" fill-rule="evenodd"/><path fill="#000000" d="m781.4184 231.16315c3.5182495 0 5.936035 0.6092682 7.253418 1.8278046c1.333374 1.2185516 2.000122 3.7825775 2.000122 7.6920776l0 6.7781525c0 5.432678 -0.6907959 8.648285 -2.0724487 9.64682c-1.3655396 0.9815979 -3.7592163 1.4724121 -7.1810913 1.4724121l0 -27.417267zm-30.435486 -21.09607l0 123.30151l30.435486 0l0 -55.5961c4.192993 0 6.77948 0.7869873 7.7594604 2.3609314c0.9960327 1.5739441 1.4940796 5.6611633 1.4940796 12.261597l0 40.97357l28.266663 0l0 -32.519897c0 -9.951477 -0.25701904 -16.027252 -0.77111816 -18.227417c-0.49804688 -2.2170715 -1.7832642 -4.645691 -3.8556519 -7.2858887c-2.0723877 -2.6401672 -6.1208496 -4.7472534 -12.145264 -6.3211975c6.651001 -0.6600342 11.10907 -2.6401672 13.374268 -5.940399c2.2651978 -3.300232 3.397766 -9.748367 3.397766 -19.344406c0 -10.509949 -1.6065063 -18.159698 -4.819519 -22.949265c-3.1970215 -4.806488 -7.341797 -7.7936096 -12.434448 -8.96138c-5.07666 -1.1677704 -14.796082 -1.7516632 -29.158325 -1.7516632z" fill-rule="evenodd"/><path fill="#000000" d="m861.23016 207.47768c-7.229309 0 -13.398315 1.2354736 -18.50708 3.7064056c-5.1087036 2.45401 -8.811707 5.8642426 -11.10907 10.230698c-2.28125 4.366455 -3.421875 11.271545 -3.421875 20.715271c0 6.5496674 0.8032837 11.93158 2.40979 16.145706c1.6225586 4.214142 3.6628418 7.514374 6.1208496 9.900696c2.4579468 2.386322 7.470276 6.219635 15.036987 11.5c7.5667114 5.2296143 12.313965 8.961395 14.24176 11.195404c1.8796387 2.2339783 2.819458 6.9812317 2.819458 14.24173c0 3.300232 -0.49804688 5.788086 -1.4940796 7.4635925c-0.97998047 1.6755066 -2.4820557 2.5132446 -4.5062866 2.5132446c-2.02417 0 -3.4379272 -0.6600342 -4.24115 -1.980133c-0.78723145 -1.3200989 -1.1808472 -4.290283 -1.1808472 -8.910614l0 -15.003326l-28.266663 0l0 8.072845c0 9.240631 0.89160156 16.374207 2.6748657 21.400696c1.7832031 5.02652 5.550476 9.16449 11.301819 12.41394c5.767395 3.2494507 12.723633 4.874176 20.868713 4.874176c7.422119 0 13.928467 -1.4047241 19.519165 -4.214142c5.5906982 -2.826355 9.357971 -6.3211975 11.30188 -10.484558c1.9599609 -4.1633606 2.9399414 -10.636871 2.9399414 -19.420563c0 -12.083893 -1.7591553 -20.842194 -5.277466 -26.274872c-3.5182495 -5.432678 -12.048828 -12.38855 -25.591797 -20.867584c-4.7231445 -2.944809 -7.5908203 -5.458069 -8.602905 -7.539749c-1.0603027 -2.0816803 -1.5904541 -5.1788177 -1.5904541 -9.291397c0 -3.1986847 0.46588135 -5.5850067 1.397644 -7.158951c0.947876 -1.5739594 2.3375244 -2.3609314 4.1689453 -2.3609314c1.6868286 0 2.8917236 0.58387756 3.614685 1.751648c0.7229004 1.1677856 1.0843506 3.8841248 1.0843506 8.149033l0 9.139084l28.266724 0l0 -4.874176c0 -9.799133 -0.90771484 -16.738083 -2.7230835 -20.816818c-1.7992554 -4.0956726 -5.486206 -7.488968 -11.060852 -10.179932c-5.5585327 -2.6909485 -12.289856 -4.0364227 -20.19397 -4.0364227z" fill-rule="evenodd"/><path fill="#000000" d="m907.281 210.06708l0 123.30151l52.77417 0l0 -24.675537l-22.338684 0l0 -27.11261l19.013184 0l0 -23.457l-19.013184 0l0 -23.380829l20.314453 0l0 -24.675537z" fill-rule="evenodd"/><path stroke="#000000" stroke-width="1.0" stroke-linejoin="round" stroke-linecap="butt" d="m0 210.06708l0 123.30151l52.774117 0l0 -24.675537l-22.338633 0l0 -27.11261l19.01314 0l0 -23.457l-19.01314 0l0 -23.380829l20.31442 0l0 -24.675537z" fill-rule="evenodd"/><path stroke="#000000" stroke-width="1.0" stroke-linejoin="round" stroke-linecap="butt" d="m61.521606 210.06708l0 123.30151l25.447243 0l0 -56.05307l15.832237 56.05307l26.676224 0l0 -123.30151l-25.447235 0l0 55.51996l-17.061226 -55.51996z" fill-rule="evenodd"/><path stroke="#000000" stroke-width="1.0" stroke-linejoin="round" stroke-linecap="butt" d="m175.16669 207.47768c-9.0607605 0 -16.450745 2.2255402 -22.169952 6.676605c-5.7031403 4.4341583 -9.15715 9.316788 -10.36203 14.647934c-1.204895 5.331131 -1.8073425 13.886337 -1.8073425 25.665604l0 36.632492c0 8.479065 0.28918457 14.84256 0.8675232 19.090546c0.5783539 4.2310486 2.0242157 8.27597 4.3376007 12.134674c2.313385 3.8587341 5.695099 7.0997314 10.145157 9.722992c4.46611 2.6063232 9.25354 3.9094849 14.362274 3.9094849c4.289398 0 8.008484 -0.9477539 11.157272 -2.8432617c3.1648254 -1.9124451 5.7834625 -4.772644 7.8558655 -8.580597l2.8194427 8.834442l19.15773 0l0 -66.18222l-35.64061 0l0 18.735138l6.144928 0l0 14.622528c0 5.737335 -0.4016266 9.596039 -1.2048798 11.576172c-0.7872009 1.9801636 -2.2892914 2.9702148 -4.5062866 2.9702148c-2.0242157 0 -3.3736877 -0.87161255 -4.048416 -2.6147766c-0.67474365 -1.7601318 -1.0121155 -5.407318 -1.0121155 -10.941528l0 -59.1756c0 -6.295807 0.33737183 -10.205307 1.0121155 -11.728485c0.6747284 -1.5231934 1.9519196 -2.2847748 3.831543 -2.2847748c2.1687927 0 3.5423737 0.8885193 4.1207123 2.6655579c0.5783539 1.7770538 0.8675232 6.194275 0.8675232 13.251678l0 11.195389l30.435486 0l0 -5.331131c0 -10.103775 -0.8916168 -17.804306 -2.6748505 -23.101593c-1.7832489 -5.314209 -5.614792 -9.900681 -11.494644 -13.759399c-5.8798523 -3.8587189 -13.277863 -5.788086 -22.194046 -5.788086z" fill-rule="evenodd"/><path stroke="#000000" stroke-width="1.0" stroke-linejoin="round" stroke-linecap="butt" d="m223.31403 210.06708l0 123.30151l48.942566 0l0 -24.675537l-18.50708 0l0 -98.62598z" fill-rule="evenodd"/><path stroke="#000000" stroke-width="1.0" stroke-linejoin="round" stroke-linecap="butt" d="m279.63052 210.06708l0 123.30151l30.435486 0l0 -123.30151z" fill-rule="evenodd"/><path stroke="#000000" stroke-width="1.0" stroke-linejoin="round" stroke-linecap="butt" d="m352.79135 207.47768c-7.2293396 0 -13.398376 1.2354736 -18.50708 3.7064056c-5.108734 2.45401 -8.811768 5.8642426 -11.10907 10.230698c-2.28125 4.366455 -3.4219055 11.271545 -3.4219055 20.715271c0 6.5496674 0.8032837 11.93158 2.40979 16.145706c1.6225891 4.214142 3.6628723 7.514374 6.120819 9.900696c2.4579773 2.386322 7.4703064 6.219635 15.037018 11.5c7.5667114 5.2296143 12.313965 8.961395 14.241791 11.195404c1.8796082 2.2339783 2.8194275 6.9812317 2.8194275 14.24173c0 3.300232 -0.49801636 5.788086 -1.4940491 7.4635925c-0.97998047 1.6755066 -2.4820862 2.5132446 -4.5062866 2.5132446c-2.024231 0 -3.4379578 -0.6600342 -4.241211 -1.980133c-0.7872009 -1.3200989 -1.1807861 -4.290283 -1.1807861 -8.910614l0 -15.003326l-28.266693 0l0 8.072845c0 9.240631 0.8916321 16.374207 2.6748657 21.400696c1.7832336 5.02652 5.5505066 9.16449 11.301849 12.41394c5.767395 3.2494507 12.723633 4.874176 20.868652 4.874176c7.422119 0 13.928528 -1.4047241 19.519196 -4.214142c5.5906982 -2.826355 9.357971 -6.3211975 11.301849 -10.484558c1.9599609 -4.1633606 2.9399414 -10.636871 2.9399414 -19.420563c0 -12.083893 -1.7591248 -20.842194 -5.277405 -26.274872c-3.51828 -5.432678 -12.048889 -12.38855 -25.591827 -20.867584c-4.723175 -2.944809 -7.5908203 -5.458069 -8.602905 -7.539749c-1.0603027 -2.0816803 -1.5904541 -5.1788177 -1.5904541 -9.291397c0 -3.1986847 0.46588135 -5.5850067 1.3976746 -7.158951c0.94784546 -1.5739594 2.3374634 -2.3609314 4.168915 -2.3609314c1.6868286 0 2.8917236 0.58387756 3.6146545 1.751648c0.7229309 1.1677856 1.0844116 3.8841248 1.0844116 8.149033l0 9.139084l28.266663 0l0 -4.874176c0 -9.799133 -0.9076843 -16.738083 -2.723053 -20.816818c-1.7992859 -4.0956726 -5.486267 -7.488968 -11.060852 -10.179932c-5.558563 -2.6909485 -12.289886 -4.0364227 -20.19394 -4.0364227z" fill-rule="evenodd"/><path stroke="#000000" stroke-width="1.0" stroke-linejoin="round" stroke-linecap="butt" d="m398.8422 210.06708l0 123.30151l30.435486 0l0 -51.788147l9.108948 0l0 51.788147l30.435486 0l0 -123.30151l-30.435486 0l0 44.0961l-9.108948 0l0 -44.0961z" fill-rule="evenodd"/><path stroke="#000000" stroke-width="1.0" stroke-linejoin="round" stroke-linecap="butt" d="m541.76605 207.47768c-6.602783 0 -12.4505005 1.1846924 -17.543152 3.5540924c-5.076599 2.3524628 -9.052734 5.5849915 -11.928406 9.697586c-2.8596191 4.1125793 -4.578583 8.394409 -5.1569214 12.8454895c-0.57836914 4.4341583 -0.8675232 11.093842 -0.8675232 19.979065l0 36.02324c0 12.083893 0.93981934 21.138367 2.8194275 27.163391c1.8796387 6.008087 5.7111816 10.713043 11.494629 14.114807c5.7835083 3.401764 13.133301 5.102661 22.0495 5.102661c8.578796 0 15.792053 -2.0055237 21.63977 -6.016571c5.8637695 -4.0110474 9.647156 -8.682129 11.350037 -14.013275c1.7189941 -5.3311157 2.5784912 -14.368652 2.5784912 -27.11261l0 -4.7980347l-30.435486 0l0 15.460297c0 6.752777 -0.3534546 11.04306 -1.0603027 12.87088c-0.6907959 1.8278198 -2.1688232 2.7417297 -4.434021 2.7417297c-2.3615723 0 -3.8796997 -0.9139099 -4.5544434 -2.7417297c-0.67474365 -1.8278198 -1.012146 -5.7373047 -1.012146 -11.728485l0 -57.27162c0 -6.245041 0.33740234 -10.306854 1.012146 -12.18544c0.67474365 -1.8786011 2.2651978 -2.8178864 4.7713623 -2.8178864c2.21698 0 3.6467896 0.7785034 4.2893677 2.3355408c0.6586914 1.5401001 0.9880371 5.432678 0.9880371 11.677719l0 21.476868l30.435486 0l0 -11.7285c0 -11.525406 -0.91571045 -20.012909 -2.7471924 -25.462524c-1.8314209 -5.466522 -5.662964 -10.027603 -11.494629 -13.683243c-5.831665 -3.6556244 -13.229675 -5.483444 -22.19403 -5.483444z" fill-rule="evenodd"/><path stroke="#000000" stroke-width="1.0" stroke-linejoin="round" stroke-linecap="butt" d="m623.6021 228.34526c1.8795776 0 3.1166382 0.80389404 3.7110596 2.4116974c0.61047363 1.5908813 0.91571045 5.2549744 0.91571045 10.992294l0 56.66234c0 7.260498 -0.28918457 11.855438 -0.8675537 13.78479c-0.5783081 1.9293518 -1.9036865 2.894043 -3.9761353 2.894043c-2.02417 0 -3.3174438 -0.83773804 -3.8796997 -2.5132446c-0.54626465 -1.6755066 -0.81933594 -6.0927124 -0.81933594 -13.251678l0 -57.57625c0 -6.346588 0.41766357 -10.16301 1.2530518 -11.449249c0.85150146 -1.3031616 2.0724487 -1.9547424 3.6629028 -1.9547424zm-0.14459229 -20.867584c-6.602783 0 -12.3862915 1.1423798 -17.350403 3.4271545c-4.9641724 2.2847748 -8.908142 5.559616 -11.832031 9.824524c-2.9077759 4.264908 -4.6428223 8.978302 -5.205078 14.140198c-0.54626465 5.1449738 -0.81933594 13.911713 -0.81933594 26.300247l0 21.09607c0 12.693176 0.28918457 21.5784 0.8674927 26.65567c0.57836914 5.0772705 2.3856812 9.773743 5.421997 14.0894165c3.036316 4.3157043 7.0446167 7.556671 12.02478 9.722992c4.996277 2.1493835 10.627136 3.22406 16.892578 3.22406c6.602783 0 12.38623 -1.142395 17.350403 -3.4271545c4.9641113 -2.2847595 8.900085 -5.559601 11.807861 -9.824524c2.9238892 -4.2648926 4.6589355 -8.969849 5.205139 -14.114807c0.56225586 -5.1618958 0.8434448 -13.937103 0.8434448 -26.325653l0 -21.09607c0 -12.693161 -0.28918457 -21.578384 -0.8675537 -26.655655c-0.57836914 -5.0772705 -2.3856812 -9.773758 -5.421997 -14.089432c-3.036316 -4.315674 -7.0526123 -7.5482025 -12.048889 -9.697586c-4.9801636 -2.1663055 -10.603027 -3.2494507 -16.868408 -3.2494507z" fill-rule="evenodd"/><path stroke="#000000" stroke-width="1.0" stroke-linejoin="round" stroke-linecap="butt" d="m669.5806 210.06708l0 72.96039c0 13.911713 0.2409668 23.042328 0.7229614 27.391876c0.4819336 4.332611 2.0482788 8.453644 4.6990356 12.363159c2.6507568 3.9094849 6.651001 7.082794 12.000671 9.519867c5.3497314 2.4371033 11.518738 3.6556396 18.50708 3.6556396c6.3136597 0 11.79187 -1.0239258 16.434692 -3.0717468c4.6589355 -2.0647583 8.410156 -5.085724 11.253662 -9.062927c2.843567 -3.99411 4.5545044 -7.878235 5.1328125 -11.652344c0.57836914 -3.7910156 0.8675537 -10.3576355 0.8675537 -19.699799l0 -82.40411l-30.435486 0l0 90.85776c0 6.1434937 -0.28112793 10.044525 -0.8434448 11.703125c-0.5462036 1.6416321 -1.7832031 2.4624634 -3.7110596 2.4624634c-1.6868286 0 -2.8114014 -0.7446594 -3.3736572 -2.2340088c-0.54626465 -1.5062561 -0.81933594 -4.9503174 -0.81933594 -10.332245l0 -92.45709z" fill-rule="evenodd"/><path stroke="#000000" stroke-width="1.0" stroke-linejoin="round" stroke-linecap="butt" d="m781.4184 231.16315c3.5182495 0 5.936035 0.6092682 7.253418 1.8278046c1.333374 1.2185516 2.000122 3.7825775 2.000122 7.6920776l0 6.7781525c0 5.432678 -0.6907959 8.648285 -2.0724487 9.64682c-1.3655396 0.9815979 -3.7592163 1.4724121 -7.1810913 1.4724121l0 -27.417267zm-30.435486 -21.09607l0 123.30151l30.435486 0l0 -55.5961c4.192993 0 6.77948 0.7869873 7.7594604 2.3609314c0.9960327 1.5739441 1.4940796 5.6611633 1.4940796 12.261597l0 40.97357l28.266663 0l0 -32.519897c0 -9.951477 -0.25701904 -16.027252 -0.77111816 -18.227417c-0.49804688 -2.2170715 -1.7832642 -4.645691 -3.8556519 -7.2858887c-2.0723877 -2.6401672 -6.1208496 -4.7472534 -12.145264 -6.3211975c6.651001 -0.6600342 11.10907 -2.6401672 13.374268 -5.940399c2.2651978 -3.300232 3.397766 -9.748367 3.397766 -19.344406c0 -10.509949 -1.6065063 -18.159698 -4.819519 -22.949265c-3.1970215 -4.806488 -7.341797 -7.7936096 -12.434448 -8.96138c-5.07666 -1.1677704 -14.796082 -1.7516632 -29.158325 -1.7516632z" fill-rule="evenodd"/><path stroke="#000000" stroke-width="1.0" stroke-linejoin="round" stroke-linecap="butt" d="m861.23016 207.47768c-7.229309 0 -13.398315 1.2354736 -18.50708 3.7064056c-5.1087036 2.45401 -8.811707 5.8642426 -11.10907 10.230698c-2.28125 4.366455 -3.421875 11.271545 -3.421875 20.715271c0 6.5496674 0.8032837 11.93158 2.40979 16.145706c1.6225586 4.214142 3.6628418 7.514374 6.1208496 9.900696c2.4579468 2.386322 7.470276 6.219635 15.036987 11.5c7.5667114 5.2296143 12.313965 8.961395 14.24176 11.195404c1.8796387 2.2339783 2.819458 6.9812317 2.819458 14.24173c0 3.300232 -0.49804688 5.788086 -1.4940796 7.4635925c-0.97998047 1.6755066 -2.4820557 2.5132446 -4.5062866 2.5132446c-2.02417 0 -3.4379272 -0.6600342 -4.24115 -1.980133c-0.78723145 -1.3200989 -1.1808472 -4.290283 -1.1808472 -8.910614l0 -15.003326l-28.266663 0l0 8.072845c0 9.240631 0.89160156 16.374207 2.6748657 21.400696c1.7832031 5.02652 5.550476 9.16449 11.301819 12.41394c5.767395 3.2494507 12.723633 4.874176 20.868713 4.874176c7.422119 0 13.928467 -1.4047241 19.519165 -4.214142c5.5906982 -2.826355 9.357971 -6.3211975 11.30188 -10.484558c1.9599609 -4.1633606 2.9399414 -10.636871 2.9399414 -19.420563c0 -12.083893 -1.7591553 -20.842194 -5.277466 -26.274872c-3.5182495 -5.432678 -12.048828 -12.38855 -25.591797 -20.867584c-4.7231445 -2.944809 -7.5908203 -5.458069 -8.602905 -7.539749c-1.0603027 -2.0816803 -1.5904541 -5.1788177 -1.5904541 -9.291397c0 -3.1986847 0.46588135 -5.5850067 1.397644 -7.158951c0.947876 -1.5739594 2.3375244 -2.3609314 4.1689453 -2.3609314c1.6868286 0 2.8917236 0.58387756 3.614685 1.751648c0.7229004 1.1677856 1.0843506 3.8841248 1.0843506 8.149033l0 9.139084l28.266724 0l0 -4.874176c0 -9.799133 -0.90771484 -16.738083 -2.7230835 -20.816818c-1.7992554 -4.0956726 -5.486206 -7.488968 -11.060852 -10.179932c-5.5585327 -2.6909485 -12.289856 -4.0364227 -20.19397 -4.0364227z" fill-rule="evenodd"/><path stroke="#000000" stroke-width="1.0" stroke-linejoin="round" stroke-linecap="butt" d="m907.281 210.06708l0 123.30151l52.77417 0l0 -24.675537l-22.338684 0l0 -27.11261l19.013184 0l0 -23.457l-19.013184 0l0 -23.380829l20.314453 0l0 -24.675537z" fill-rule="evenodd"/></g></svg>